<?xml version="1.0" encoding="iso-8859-1"?>
<!-- Generator: Adobe Illustrator 19.0.0, SVG Export Plug-In . SVG Version: 6.00 Build 0)  -->
<svg version="1.1" id="Capa_1" xmlns="http://www.w3.org/2000/svg" xmlns:xlink="http://www.w3.org/1999/xlink" x="0px" y="0px"
	 viewBox="0 0 478.5 478.5" style="enable-background:new 0 0 478.5 478.5;" xml:space="preserve">
<g>
	<g>
		<path d="M458.1,0.5H20.3C9.1,0.5,0,9.6,0,20.8v436.9C0,468.9,9.1,478,20.3,478h436.9c11.2,0,20.3-9.1,21.3-19.3V20.9
			C478.5,9.7,469.3,0.5,458.1,0.5z M437.8,438.4H39.6V40.2h398.3v398.2H437.8z"/>
		<path d="M218.4,376.5c0,11.2,9.1,20.3,20.3,20.3h137.2c11.2,0,20.3-9.1,21.3-20.3V239.3c0-11.2-9.1-20.3-20.3-20.3
			s-20.3,9.1-20.3,20.3v116.8H238.7C227.5,356.1,218.4,365.3,218.4,376.5z"/>
		<path d="M101.5,259.6c10.2,0,19.3-9.1,19.3-20.3V122.5h117.9c11.2,0,20.3-9.1,20.3-20.3s-9.1-20.3-20.3-20.3H101.5
			c-11.2,0-20.3,9.1-20.3,20.3v137.1C81.2,250.5,90.4,259.6,101.5,259.6z"/>
	</g>
</g>
<g>
</g>
<g>
</g>
<g>
</g>
<g>
</g>
<g>
</g>
<g>
</g>
<g>
</g>
<g>
</g>
<g>
</g>
<g>
</g>
<g>
</g>
<g>
</g>
<g>
</g>
<g>
</g>
<g>
</g>
</svg>
