<svg width="79" height="76" viewBox="0 0 79 76" fill="none" xmlns="http://www.w3.org/2000/svg">
<path d="M8 39V22.8392C8 20.0151 8 18.603 8.22192 17.4268C9.19885 12.249 13.249 8.19885 18.4268 7.22192C19.603 7 21.0151 7 23.8392 7C25.0765 7 25.6952 7 26.2898 7.05562C28.8533 7.29533 31.2849 8.30253 33.267 9.94563C33.7267 10.3268 34.1642 10.7643 35.039 11.6392L36.8 13.4C39.4106 16.0105 40.7158 17.3157 42.2787 18.1854C43.1373 18.6631 44.0483 19.0403 44.9933 19.3097C46.7133 19.8 48.559 19.8 52.2509 19.8H53.4467C61.8704 19.8 66.0819 19.8 68.8198 22.2623C69.0717 22.4888 69.3114 22.7284 69.5376 22.9803C72 25.7179 72 29.9297 72 38.3533V45.4C72 57.4678 72 63.5021 68.2509 67.2509C64.5021 71 58.4678 71 46.4 71H33.6C21.532 71 15.4981 71 11.749 67.2509C9.65885 65.1606 8.73398 62.3603 8.32477 58.2" stroke="#DFDFDF" stroke-width="5" stroke-linecap="square"/>
<path d="M8 48.6C28.6197 48.6 22.5803 48.6 43.2 48.6M43.2 48.6L30 39M43.2 48.6L30 58.2" stroke="#DFDFDF" stroke-width="5" stroke-linecap="round" stroke-linejoin="round"/>
</svg>
