<svg width="61" height="76" viewBox="0 0 61 76" fill="none" xmlns="http://www.w3.org/2000/svg">
<g clip-path="url(#clip0_2_7)">
<rect x="52" y="1" width="8" height="52" rx="2" fill="#808080"/>
<path d="M11.984 12L5.70745 2.00001C4.21094 -0.0232306 1 1.03524 1 3.55179V73.25C1 74.2165 1.7835 75 2.75 75C3.7165 75 4.5 74.2165 4.5 73.25V28.7361C4.5 28.1791 5.25089 28.0018 5.5 28.5L8 32.5L13 39.5L18.5 46.5L24.2234 53L27.9894 57L35.5213 64L42.1117 69L44.8914 71.1243C46.942 72.6914 49.2923 73.8211 51.797 74.4434L52.9615 74.7327C53.676 74.9102 54.4095 75 55.1457 75H58.3425C58.7994 75 59.2361 74.8114 59.5493 74.4787C59.8388 74.1712 60 73.7648 60 73.3425V46L59.375 47.6595C59.1645 48.2184 58.8986 48.7548 58.5811 49.2607L58.2517 49.7855C58.1621 49.9282 58.0589 50.0618 57.9434 50.1844C57.4534 50.7049 56.7702 51 56.0554 51H54.0372C52.5924 51 51.1673 50.6649 49.8739 50.0209L46.8191 48.5C43.69 46.8382 40.7499 44.8428 38.0499 42.5486L37.4043 42L33.3245 38.5L29.2447 34.5L26.1064 31L22.3404 26.5L17 19.5L11.984 12Z" fill="url(#paint0_linear_2_7)"/>
</g>
<defs>
<linearGradient id="paint0_linear_2_7" x1="30.5" y1="-4.36432" x2="30.5" y2="75" gradientUnits="userSpaceOnUse">
<stop stop-color="#7AB2B7"/>
<stop offset="0.359375" stop-color="#7AB3B7"/>
<stop offset="0.9999" stop-color="#589ED5"/>
</linearGradient>
<clipPath id="clip0_2_7">
<rect width="61" height="76" fill="white"/>
</clipPath>
</defs>
</svg>
