<svg width="61" height="76" viewBox="0 0 61 76" fill="none" xmlns="http://www.w3.org/2000/svg">
<g clip-path="url(#clip0_8_4)">
<rect x="52" y="1.36432" width="8" height="52" rx="2" fill="black" stroke="black"/>
<path d="M11.984 12.3643L5.70745 2.36433C4.21094 0.341088 1 1.39956 1 3.91611V73.8643C1 74.6927 1.67157 75.3643 2.5 75.3643C3.32843 75.3643 4 74.6927 4 73.8643V49.3643V25.9259C4 25.6266 4.42741 25.574 4.5 25.8643C5.16432 27.8573 6.06259 29.7645 7.176 31.5459L8 32.8643L10.4149 36.8643L12.9255 40.3643L15.4362 43.8643L18.5745 47.3643L21.0851 50.3643L24.2234 53.3643L27.9894 57.3643L28.4548 57.8587C30.6523 60.1928 33.0138 62.3669 35.5213 64.3643L35.7756 64.6075C37.6915 66.4389 39.8184 68.0357 42.1117 69.3643L44.9362 71.3643L45.8008 71.9153C47.3109 72.8777 48.9329 73.6522 50.6307 74.2217L52.8471 74.9651C53.6353 75.2295 54.4612 75.3643 55.2926 75.3643H58.3425C58.7994 75.3643 59.2361 75.1757 59.5493 74.843C59.8388 74.5355 60 74.1292 60 73.7068V46.3643L59.375 48.0239C59.1645 48.5828 58.8986 49.1192 58.5811 49.625L58.2517 50.1498C58.1621 50.2925 58.0589 50.4261 57.9434 50.5488C57.4534 51.0692 56.7702 51.3643 56.0554 51.3643H54.0372C52.5924 51.3643 51.1673 51.0292 49.8739 50.3852L46.8191 48.8643C43.69 47.2025 40.7499 45.2071 38.0499 42.913L37.4043 42.3643L33.3245 38.8643L29.2447 34.8643L26.1064 31.3643L22.3404 26.8643L17 19.8643L11.984 12.3643Z" fill="#589ed5" stroke="black"/>
</g>
<defs>
<clipPath id="clip0_8_4">
<rect width="61" height="76" fill="white"/>
</clipPath>
</defs>
</svg>
