<svg width="64" height="77" viewBox="0 0 64 77" fill="none" xmlns="http://www.w3.org/2000/svg">
<g clip-path="url(#clip0_9_5)">
<rect x="54" y="1" width="8" height="52" rx="2" fill="black" stroke="black"/>
<path d="M12.984 12.3643L6.70745 2.36433C5.21094 0.341088 2 1.39956 2 3.91611V73.8643C2 74.6927 2.67157 75.3643 3.5 75.3643C4.32843 75.3643 5 74.6927 5 73.8643V49.3643V23.8643L5.5 25.8643C6.16432 27.8573 7.06259 29.7645 8.176 31.5459L9 32.8643L11.4149 36.8643L13.9255 40.3643L16.4362 43.8643L19.5745 47.3643L22.0851 50.3643L25.2234 53.3643L28.9894 57.3643L29.4548 57.8587C31.6523 60.1928 34.0138 62.3669 36.5213 64.3643L36.7756 64.6075C38.6915 66.4389 40.8184 68.0357 43.1117 69.3643L45.9362 71.3643L46.8008 71.9153C48.3109 72.8777 49.9329 73.6522 51.6307 74.2217L53.8471 74.9651C54.6353 75.2295 55.4612 75.3643 56.2926 75.3643H59.3425C59.7994 75.3643 60.2361 75.1757 60.5493 74.843C60.8388 74.5355 61 74.1292 61 73.7068V46.3643L60.375 48.0239C60.1645 48.5828 59.8986 49.1192 59.5811 49.625L59.2517 50.1498C59.1621 50.2925 59.0589 50.4261 58.9434 50.5488C58.4534 51.0692 57.7702 51.3643 57.0554 51.3643H55.0372C53.5924 51.3643 52.1673 51.0292 50.8739 50.3852L47.8191 48.8643C44.69 47.2025 41.7499 45.2071 39.0499 42.913L38.4043 42.3643L34.3245 38.8643L30.2447 34.8643L27.1064 31.3643L23.3404 26.8643L18 19.8643L12.984 12.3643Z" fill="#09BBF3"/>
<path d="M5 23.8643L5.5 25.8643V25.8643C6.16432 27.8573 7.06259 29.7645 8.176 31.5459L9 32.8643L11.4149 36.8643L13.9255 40.3643L16.4362 43.8643L19.5745 47.3643L22.0851 50.3643L25.2234 53.3643L28.9894 57.3643L29.4548 57.8587C31.6523 60.1928 34.0138 62.3669 36.5213 64.3643V64.3643L36.7756 64.6075C38.6915 66.4389 40.8184 68.0357 43.1117 69.3643V69.3643L45.9362 71.3643L46.8008 71.9153C48.3109 72.8777 49.9329 73.6522 51.6307 74.2217L53.8471 74.9651C54.6353 75.2295 55.4612 75.3643 56.2926 75.3643V75.3643H59.3425C59.7994 75.3643 60.2361 75.1757 60.5493 74.843V74.843C60.8388 74.5355 61 74.1292 61 73.7068V46.3643L60.375 48.0239C60.1645 48.5828 59.8986 49.1192 59.5811 49.625L59.2517 50.1498C59.1621 50.2925 59.0589 50.4261 58.9434 50.5488V50.5488C58.4534 51.0692 57.7702 51.3643 57.0554 51.3643H55.0372V51.3643C53.5924 51.3643 52.1673 51.0292 50.8739 50.3852L47.8191 48.8643V48.8643C44.69 47.2025 41.7499 45.2071 39.0499 42.913L38.4043 42.3643L34.3245 38.8643L30.2447 34.8643L27.1064 31.3643L23.3404 26.8643L18 19.8643L12.984 12.3643L6.70745 2.36433V2.36433C5.21094 0.341088 2 1.39956 2 3.91611V73.8643C2 74.6927 2.67157 75.3643 3.5 75.3643V75.3643C4.32843 75.3643 5 74.6927 5 73.8643V49.3643V23.8643ZM5 23.8643L4 18.5L3.5 14.5L3 5.5V2.36433" stroke="black" stroke-width="3"/>
</g>
<defs>
<clipPath id="clip0_9_5">
<rect width="64" height="77" fill="white"/>
</clipPath>
</defs>
</svg>
