<svg width="59" height="62" viewBox="0 0 59 62" fill="none" xmlns="http://www.w3.org/2000/svg">
<path d="M5.505 59.6264C5.6441 59.4573 7.8609 51.8 8.4048 49.9994C8.8618 48.4857 12.3666 34.7292 14.5649 24.9284C14.5733 24.7969 48.0488 24.3151 48.0488 24.3151V20.3042C48.0488 20.8564 47.0488 16.9482 47.0488 16.9482L19.5557 16.377C19.4756 15.1406 18.5517 12.2554 17.4189 12.2554L4.832 12.0571C3.7294 12.0571 1.9999 13.3978 1.9999 14.5008C1.9999 14.5008 2.5526 54.2256 1.9999 54.2256C1.4472 54.2256 1 56.5527 1 56C1 56 1.3537 59.5947 2.3755 60.566C2.3898 60.5797 2.4057 60.5872 2.4206 60.5995C2.2881 60.4436 5.346 59.8189 5.505 59.6264Z" fill="#7AB3B7"/>
<path d="M13.9854 24.3151C13.9854 24.3933 13.9771 24.4708 13.9595 24.5469C13.6846 25.7729 7.225 54.5886 6.5965 56.6712C6.2606 57.7876 5.6372 58.9794 4.832 59.9622L47.9435 59.9726C49.0816 59.9726 49.4651 59.9726 50.0956 57.5827C50.7632 55.0522 56.794 27.3134 57.4376 24.3504C57.4393 24.3414 57.4442 24.3151 57.4442 24.3151H13.9854V24.3151Z" fill="#7AB3B7"/>
<path d="M47.0488 20.3044V16.9482L19.7105 16.9457C19.5125 16.9457 19.3519 16.7807 19.3519 16.5773L19.2832 15.0604C19.1672 13.2726 17.9434 12.0571 16.2865 12.0571H4.9999C3.343 12.0571 1.9999 13.4003 1.9999 15.0571V56" fill="#7AB3B7"/>
<path d="M47.0488 20.3044V16.9482L19.7105 16.9457C19.5125 16.9457 19.3519 16.7807 19.3519 16.5773L19.2832 15.0604C19.1672 13.2726 17.9434 12.0571 16.2865 12.0571H4.9999C3.343 12.0571 1.9999 13.4003 1.9999 15.0571V56" stroke="#DFDFDF" stroke-width="3" stroke-miterlimit="10" stroke-linecap="round" stroke-linejoin="round"/>
<path d="M7.0681 55.5678C6.4784 57.5218 4.8458 59.7067 3.1722 59.9618L47.087 59.9726C48.7439 59.9726 49.4103 59.5338 50.087 56.9726C50.7637 54.4114 57.087 25.3151 57.087 25.3151C57.087 24.7628 56.6393 24.3151 56.087 24.3151H15.0059C14.4536 24.3151 14.0059 24.7628 14.0059 25.3151C14.0059 25.3151 7.6578 53.6137 7.0681 55.5678Z" fill="#7AB3B7" stroke="#DFDFDF" stroke-width="3" stroke-miterlimit="10" stroke-linecap="round" stroke-linejoin="round"/>
<path d="M25.1553 9.7069L34.5 1.9495L43.8447 9.7069H41.7308C40.3501 9.7069 39.2308 10.8262 39.2308 12.2069V23.5H29.7692V12.2069C29.7692 10.8262 28.6499 9.7069 27.2692 9.7069H25.1553Z" fill="#7AB3B7" stroke="#DFDFDF" stroke-width="3"/>
</svg>
