<svg width="43" height="43" viewBox="0 0 43 43" fill="none" xmlns="http://www.w3.org/2000/svg">
<path d="M21.4999 35.7824C16.6175 35.7824 11.3775 33.4131 6.34628 28.9306C2.60695 25.5991 0.305608 22.3076 0.20953 22.1691C-0.0698026 21.7668 -0.0698026 21.2334 0.20953 20.8311C0.305608 20.6925 2.60695 17.4012 6.34645 14.0696C11.3776 9.58717 16.6176 7.21771 21.5 7.21771C24.7446 7.21771 28.1038 8.23451 31.4843 10.2397C38.1295 14.1816 42.6032 20.5613 42.7904 20.831C43.1599 21.3633 43.0279 22.0943 42.4957 22.4637C41.9635 22.833 41.2324 22.7014 40.8629 22.169C40.8203 22.1075 36.4818 15.9322 30.2872 12.2577C27.2739 10.4703 24.3175 9.56399 21.4999 9.56399C12.4303 9.56399 4.63602 18.8906 2.63391 21.4994C4.63837 24.1065 12.4457 33.436 21.5 33.436C26.8909 33.436 31.8162 30.0786 34.9987 27.2623C35.4839 26.8331 36.2255 26.8783 36.6546 27.3633C37.084 27.8485 37.0387 28.59 36.5536 29.0193C31.5542 33.4437 26.3486 35.7824 21.4999 35.7824Z" fill="black"/>
<path d="M27.7215 15.2784C24.2855 11.8423 18.7144 11.8423 15.2783 15.2784C11.8422 18.7144 11.8422 24.2856 15.2783 27.7216C18.7144 31.1577 24.2855 31.1577 27.7215 27.7216L21.5 21.5L27.7215 15.2784Z" fill="#EEEEEE"/>
<path d="M21.5 31.4672C18.9463 31.4672 16.3929 30.4951 14.4488 28.5512C10.5608 24.6632 10.5608 18.3369 14.4488 14.4488C18.337 10.5607 24.663 10.5608 28.5512 14.4488C29.0094 14.9069 29.0094 15.6498 28.5512 16.108L23.1592 21.5001L28.5512 26.8921C29.0094 27.3502 29.0094 28.0931 28.5512 28.5513C26.6071 30.4951 24.0536 31.4672 21.5 31.4672ZM21.5 13.8781C19.547 13.8781 17.5946 14.6212 16.1079 16.1081C13.1348 19.0812 13.1348 23.9191 16.1079 26.8922C18.7991 29.5833 23.0179 29.8387 25.9988 27.658L20.6704 22.3296C20.2122 21.8715 20.2122 21.1287 20.6704 20.6705L25.9988 15.3421C24.6647 14.3662 23.082 13.8781 21.5 13.8781Z" fill="black"/>
</svg>
