<svg width="53" height="43" viewBox="0 0 53 43" fill="none" xmlns="http://www.w3.org/2000/svg">
<path d="M38.8964 16.9999C38.6543 16.9999 38.4098 17.0088 38.1632 17.0254C37.5681 9.19218 31.0045 3 23.0198 3C14.6467 3 7.83394 9.812 7.83394 18.1863C7.83394 18.2361 7.83437 18.2853 7.83585 18.3352C4.26502 20.2618 2 24.0109 2 28.1036C2 34.2259 6.98038 39.2077 13.1033 39.2077H38.8964C45.0181 39.2077 50 34.2264 50 28.1036C50 21.981 45.0181 16.9999 38.8964 16.9999ZM38.8964 36.8343H13.1033C8.28957 36.8343 4.37279 32.9172 4.37279 28.1036C4.37279 24.6673 6.4046 21.5396 9.54827 20.1344L10.2994 19.7987L10.2354 18.7731C10.2225 18.5784 10.2074 18.3844 10.2074 18.1863C10.2074 11.1211 15.9555 5.37268 23.0207 5.37268C30.0869 5.37268 35.8358 11.1206 35.8338 18.194C35.8304 18.2494 35.8269 18.3033 35.8264 18.3577L35.8124 19.8071L37.2356 19.5341C37.798 19.4261 38.3571 19.3721 38.8977 19.3721C43.7122 19.3721 47.6284 23.2884 47.6284 28.1035C47.6284 32.9172 43.7107 36.8343 38.8964 36.8343Z" fill="#C83B3B"/>
<path fill-rule="evenodd" clip-rule="evenodd" d="M17.72 16.72C17.8606 16.5796 18.0513 16.5007 18.25 16.5007C18.4488 16.5007 18.6394 16.5796 18.78 16.72L24 21.94L29.22 16.72C29.2887 16.6463 29.3715 16.5872 29.4635 16.5462C29.5555 16.5052 29.6548 16.4832 29.7555 16.4814C29.8562 16.4796 29.9562 16.4982 30.0496 16.5359C30.143 16.5736 30.2278 16.6297 30.299 16.701C30.3703 16.7722 30.4264 16.857 30.4641 16.9504C30.5019 17.0438 30.5204 17.1438 30.5186 17.2445C30.5168 17.3452 30.4948 17.4445 30.4538 17.5365C30.4128 17.6285 30.3537 17.7113 30.28 17.78L25.06 23L30.28 28.22C30.3537 28.2887 30.4128 28.3715 30.4538 28.4635C30.4948 28.5555 30.5168 28.6548 30.5186 28.7555C30.5204 28.8562 30.5019 28.9562 30.4641 29.0496C30.4264 29.143 30.3703 29.2278 30.299 29.299C30.2278 29.3703 30.143 29.4264 30.0496 29.4641C29.9562 29.5018 29.8562 29.5204 29.7555 29.5186C29.6548 29.5168 29.5555 29.4948 29.4635 29.4538C29.3715 29.4128 29.2887 29.3537 29.22 29.28L24 24.06L18.78 29.28C18.6378 29.4125 18.4498 29.4846 18.2555 29.4812C18.0612 29.4777 17.8758 29.399 17.7384 29.2616C17.601 29.1242 17.5223 28.9388 17.5188 28.7445C17.5154 28.5502 17.5875 28.3622 17.72 28.22L22.94 23L17.72 17.78C17.5796 17.6394 17.5007 17.4488 17.5007 17.25C17.5007 17.0513 17.5796 16.8606 17.72 16.72Z" fill="#C83B3B"/>
</svg>
