<?xml version="1.0" encoding="iso-8859-1"?>
<!-- Generator: Adobe Illustrator 19.0.0, SVG Export Plug-In . SVG Version: 6.00 Build 0)  -->
<svg version="1.1" id="Capa_1" xmlns="http://www.w3.org/2000/svg" xmlns:xlink="http://www.w3.org/1999/xlink" x="0px" y="0px"
	 viewBox="0 0 489.901 489.901" style="enable-background:new 0 0 489.901 489.901;" xml:space="preserve" fill="#808080">
<g>
	<g fill="#808080">
		<path d="M319.4,227.25v43.7h-43.7c-11.4,0-20.8,9.4-20.8,20.8s9.4,20.8,20.8,20.8h63.5c11.4,0,20.8-9.4,21.8-21.8v-63.5
			c0-11.4-9.4-20.8-20.8-20.8C328.7,206.45,319.4,215.85,319.4,227.25z"/>
		<path d="M149.8,185.65c10.4,0,19.8-9.4,19.8-19.8v-43.7h43.7c11.4,0,20.8-9.4,20.8-20.8s-9.4-20.8-20.8-20.8h-63.5
			c-11.4,0-20.8,9.4-20.8,20.8v63.5C129,176.25,138.4,185.65,149.8,185.65z"/>
		<path d="M148.8,292.85c12.5,11.8,25,4.2,29.1,0l163.3-163.3c8.3-8.3,8.3-20.8,0-29.1s-20.8-8.3-29.1,0l-163.3,163.2
			C140.4,271.95,140.2,284.75,148.8,292.85z"/>
		<path d="M469.2,0.45H20.8C9.4,0.45,0,9.85,0,21.25v351.7c0,11.4,9.4,20.8,20.8,20.8h447.3c11.4,0,20.8-9.4,21.8-19.8V21.25
			C490,9.85,480.6,0.45,469.2,0.45z M448.4,353.15H40.6V41.05h407.8V353.15z"/>
		<path d="M469.2,447.85H20.8c-11.4,0-20.8,9.4-20.8,20.8s9.4,20.8,20.8,20.8h447.3c11.4,0,21.8-9.4,21.8-20.8
			C490,457.15,480.6,447.85,469.2,447.85z"/>
	</g>
</g>
<g>
</g>
<g>
</g>
<g>
</g>
<g>
</g>
<g>
</g>
<g>
</g>
<g>
</g>
<g>
</g>
<g>
</g>
<g>
</g>
<g>
</g>
<g>
</g>
<g>
</g>
<g>
</g>
<g>
</g>
</svg>
