<svg width="43" height="43" viewBox="0 0 43 43" fill="none" xmlns="http://www.w3.org/2000/svg">
<g clip-path="url(#clip0_135_30)">
<path d="M42.7905 20.8309C42.6206 20.5861 38.9201 15.3091 33.2702 11.3889L36.4043 8.2548C36.8624 7.79667 36.8624 7.05383 36.4043 6.59561C35.9461 6.13764 35.2035 6.13764 34.7451 6.59561L31.2411 10.0996C27.9427 8.18888 24.6668 7.2176 21.5 7.2176C16.6175 7.2176 11.3775 9.58688 6.34627 14.0694C2.60696 17.4009 0.305537 20.6925 0.209375 20.8309C-0.0698729 21.2332 -0.0698729 21.7666 0.209375 22.1689C0.305453 22.3075 2.60696 25.5988 6.34627 28.9304C7.46687 29.9287 8.59789 30.8216 9.73302 31.6076L6.59562 34.745C6.13748 35.2032 6.13748 35.946 6.59562 36.4042C6.82473 36.6332 7.12497 36.7478 7.42513 36.7478C7.72537 36.7478 8.02553 36.6332 8.25464 36.4042L11.7633 32.8955C15.0563 34.7962 18.3522 35.7823 21.4997 35.7823C26.3484 35.7823 31.5539 33.4438 36.5532 29.0194C37.0384 28.59 37.0836 27.8486 36.6542 27.3634C36.2251 26.8783 35.4836 26.833 34.9983 27.2624C31.8158 30.0788 26.8907 33.4361 21.4996 33.4361C18.6579 33.4361 15.9391 32.5168 13.4838 31.1751L15.3285 29.3305C17.1315 30.7534 19.3149 31.4674 21.4996 31.4674C24.0533 31.4674 26.6067 30.4954 28.5508 28.5514C29.0089 28.0932 29.0089 27.3504 28.5508 26.8922L23.1587 21.5001L28.5508 16.1081L31.5807 13.0782C37.0771 16.7812 40.8229 22.112 40.8626 22.1692C41.2321 22.7016 41.9631 22.8332 42.4954 22.4639C43.028 22.0941 43.1599 21.3631 42.7905 20.8309ZM2.634 21.4992C4.6361 18.8904 12.4304 9.56386 21.5 9.56386C24.0775 9.56386 26.7713 10.3247 29.5185 11.8223L27.6711 13.6695C23.7607 10.5833 18.0562 10.8415 14.4487 14.4487C10.8416 18.0559 10.5835 23.7606 13.6696 27.671L11.4237 29.9169C7.07802 26.9866 3.82733 23.0514 2.634 21.4992ZM25.9989 27.6578C23.3302 29.6101 19.6709 29.6082 17.0024 27.6566L21.5 23.159L25.9989 27.6578ZM20.6704 20.6703L15.3423 25.9984C13.1618 23.0174 13.4168 18.7989 16.1079 16.1077C17.5945 14.6211 19.5472 13.8778 21.5 13.8778C23.0822 13.8778 24.6646 14.3657 25.9987 15.3418L20.6704 20.6703Z" fill="black"/>
</g>
<defs>
<clipPath id="clip0_135_30">
<rect width="43" height="43" fill="white"/>
</clipPath>
</defs>
</svg>
