<svg width="61" height="76" viewBox="0 0 61 76" fill="none" xmlns="http://www.w3.org/2000/svg">
<g clip-path="url(#clip0_2_7)">
<rect x="52" y="1" width="8" height="52" rx="2" fill="#09BBF3" stroke="black"/>
<path d="M11.984 12L5.70745 2.00001C4.21094 -0.0232306 1 1.03524 1 3.55179V73.75C1 74.4404 1.55964 75 2.25 75C2.94036 75 3.5 74.4404 3.5 73.75V26.5122C3.5 26.2118 3.93376 26.1688 3.99269 26.4634C3.99753 26.4877 4.00597 26.5111 4.01772 26.5328L5.07979 28.5L7.90425 33L10.4149 36.5L12.9255 40L15.4362 43.5L18.5745 47L21.0851 50L24.2234 53L27.9894 57L28.4548 57.4944C30.6523 59.8285 33.0138 62.0025 35.5213 64L35.7756 64.2432C37.6915 66.0745 39.8184 67.6714 42.1117 69L44.9362 71L45.8008 71.551C47.3109 72.5134 48.9329 73.2879 50.6307 73.8574L52.8471 74.6008C53.6353 74.8652 54.4612 75 55.2926 75H58.3425C58.7994 75 59.2361 74.8114 59.5493 74.4787C59.8388 74.1712 60 73.7648 60 73.3425V46L59.375 47.6595C59.1645 48.2184 58.8986 48.7548 58.5811 49.2607L58.2517 49.7855C58.1621 49.9282 58.0589 50.0618 57.9434 50.1844C57.4534 50.7049 56.7702 51 56.0554 51H54.0372C52.5924 51 51.1673 50.6649 49.8739 50.0209L46.8191 48.5C43.69 46.8382 40.7499 44.8428 38.0499 42.5486L37.4043 42L33.3245 38.5L29.2447 34.5L26.1064 31L22.3404 26.5L17 19.5L11.984 12Z" fill="#0072B2" stroke="black"/>
</g>
<defs>
<clipPath id="clip0_2_7">
<rect width="61" height="76" fill="white"/>
</clipPath>
</defs>
</svg>
