<svg width="81" height="81" viewBox="0 0 81 81" fill="none" xmlns="http://www.w3.org/2000/svg">
<path d="M74.0899 15.4072H67.096H50.8538H30.1458H13.9042H6.91C5.47035 15.4072 4.30328 16.5745 4.30328 18.014C4.30328 19.4534 5.47035 20.6207 6.91 20.6207H11.49L15.9462 78.5933C16.0508 79.9514 17.1831 81 18.5454 81H30.1456H38.2666C39.7063 81 40.8734 79.8328 40.8734 78.3933C40.8734 76.9538 39.7063 75.7866 38.2666 75.7866H32.7528V20.6207H48.2474V78.3933C48.2474 79.8328 49.4146 81 50.8541 81H62.4546C63.8169 81 64.9493 79.9513 65.0538 78.5933L69.5102 20.6207H74.09C75.5295 20.6207 76.6967 19.4534 76.6967 18.014C76.6967 16.5745 75.5292 15.4072 74.0899 15.4072ZM27.5391 75.7866H20.9595L16.7189 20.6207H27.5391V75.7866ZM60.0401 75.7866H53.4605V20.6207H64.2811L60.0401 75.7866Z" fill="#DFDFDF"/>
<path d="M52.6331 11.9567C51.1936 11.9567 50.0264 10.7893 50.0264 9.34996V5.21343H31.9411V9.3498C31.9411 10.7893 30.774 11.9565 29.3343 11.9565C27.8947 11.9565 26.7276 10.7891 26.7276 9.3498V2.60671C26.7275 1.16722 27.8945 0 29.3342 0H52.6331C54.0726 0 55.2398 1.16722 55.2398 2.60671V9.3498C55.2398 10.7896 54.0729 11.9567 52.6331 11.9567Z" fill="#DFDFDF"/>
</svg>
