<svg width="53" height="43" viewBox="0 0 53 43" fill="none" xmlns="http://www.w3.org/2000/svg">
<path d="M30 18L21.4286 28L18 24" stroke="#2AA245" stroke-width="1.5" stroke-linecap="round" stroke-linejoin="round"/>
<path d="M38.8964 16.9999C38.6543 16.9999 38.4098 17.0088 38.1632 17.0254C37.5681 9.19218 31.0045 3 23.0198 3C14.6467 3 7.83394 9.812 7.83394 18.1863C7.83394 18.2361 7.83437 18.2853 7.83585 18.3352C4.26502 20.2618 2 24.0109 2 28.1036C2 34.2259 6.98038 39.2077 13.1033 39.2077H38.8964C45.0181 39.2077 50 34.2264 50 28.1036C50 21.981 45.0181 16.9999 38.8964 16.9999ZM38.8964 36.8343H13.1033C8.28957 36.8343 4.37279 32.9172 4.37279 28.1036C4.37279 24.6673 6.4046 21.5396 9.54827 20.1344L10.2994 19.7987L10.2354 18.7731C10.2225 18.5784 10.2074 18.3844 10.2074 18.1863C10.2074 11.1211 15.9555 5.37268 23.0207 5.37268C30.0869 5.37268 35.8358 11.1206 35.8338 18.194C35.8304 18.2494 35.8269 18.3033 35.8264 18.3577L35.8124 19.8071L37.2356 19.5341C37.798 19.4261 38.3571 19.3721 38.8977 19.3721C43.7122 19.3721 47.6284 23.2884 47.6284 28.1035C47.6284 32.9172 43.7107 36.8343 38.8964 36.8343Z" fill="grey"/>
</svg>
